HIERARCHY
ROOT Hips
{
	OFFSET 0.00000 0.00000 0.00000
	CHANNELS 6 Xposition Yposition Zposition Zrotation Yrotation Xrotation 
	JOINT LHipJoint
	{
		OFFSET 0 0 0
		CHANNELS 3 Zrotation Yrotation Xrotation
		JOINT LeftHip
		{
			OFFSET 1.58161 -1.81893 0.78828
			CHANNELS 3 Zrotation Yrotation Xrotation
			JOINT LeftKnee
			{
				OFFSET 2.53374 -6.96141 0.00000
				CHANNELS 3 Zrotation Yrotation Xrotation
				JOINT LeftAnkle
				{
					OFFSET 2.63509 -7.23986 0.00000
					CHANNELS 3 Zrotation Yrotation Xrotation
					JOINT LeftToe
					{
						OFFSET 0.14115 -0.38781 2.05350
						CHANNELS 3 Zrotation Yrotation Xrotation
						End Site
						{
							OFFSET 0.00000 -0.00000 1.05543
						}
					}
				}
			}
		}
	}
	JOINT RHipJoint
	{
		OFFSET 0 0 0
		CHANNELS 3 Zrotation Yrotation Xrotation
		JOINT RightHip
		{
			OFFSET -1.11138 -1.81893 0.78828
			CHANNELS 3 Zrotation Yrotation Xrotation
			JOINT RightKnee
			{
				OFFSET -2.58392 -7.09926 0.00000
				CHANNELS 3 Zrotation Yrotation Xrotation
				JOINT RightAnkle
				{
					OFFSET -2.66423 -7.31992 0.00000
					CHANNELS 3 Zrotation Yrotation Xrotation
					JOINT RightToe
					{
						OFFSET -0.18831 -0.51739 2.12114
						CHANNELS 3 Zrotation Yrotation Xrotation
						End Site
						{
							OFFSET -0.00000 -0.00000 1.09845
						}
					}
				}
			}
		}
	}
	JOINT lowerback
	{
		OFFSET 0 0 0
		CHANNELS 3 Zrotation Yrotation Xrotation
		JOINT Chest
		{
			OFFSET -0.01511 1.97958 -0.08829
			CHANNELS 3 Zrotation Yrotation Xrotation
			JOINT Chest2
			{
				OFFSET 0.08344 1.97334 -0.04330
				CHANNELS 3 Zrotation Yrotation Xrotation
				JOINT lowerneck
				{
					OFFSET 0 0 0
					CHANNELS 3 Zrotation Yrotation Xrotation
					JOINT Neck
					{
						OFFSET 0.00559 1.76246 0.31246
						CHANNELS 3 Zrotation Yrotation Xrotation
						JOINT Head
						{
							OFFSET -0.07011 1.80354 -0.30524
							CHANNELS 3 Zrotation Yrotation Xrotation
							End Site
							{
								OFFSET -0.02385 1.83547 -0.13906
							}
						}
					}
				}
				JOINT LeftCollar
				{
					OFFSET 0 0 0
					CHANNELS 3 Zrotation Yrotation Xrotation
					JOINT LeftShoulder
					{
						OFFSET 3.20667 1.30156 -0.60240
CHANNELS 3 Zrotation Xrotation Yrotation
						JOINT LeftElbow
						{
OFFSET 0 -4.956630 0.000000
CHANNELS 3 Zrotation Xrotation Yrotation
							JOINT LeftWrist
							{
OFFSET 0 -3.381770 0.000000
CHANNELS 3 Zrotation Xrotation Yrotation
								JOINT lhand
								{
									OFFSET 0 0 0
CHANNELS 3 Zrotation Xrotation Yrotation
									JOINT LFingers
									{
OFFSET 0 -0.662910 0.000000
CHANNELS 3 Zrotation Xrotation Yrotation
										End Site
										{
OFFSET 0 -0.534450 0.000000
										}
									}
								}
								JOINT LThumb
								{
OFFSET 0 0.000000 0.000000
CHANNELS 3 Zrotation Xrotation Yrotation
									End Site
									{
OFFSET 0 -0.542610 0.542610
									}
								}
							}
						}
					}
				}
				JOINT RightCollar
				{
					OFFSET 0 0 0
					CHANNELS 3 Zrotation Yrotation Xrotation
					JOINT RightShoulder
					{
						OFFSET -3.06877 1.34672 -0.60964
CHANNELS 3 Zrotation Xrotation Yrotation
						JOINT RightElbow
						{
OFFSET 0 -5.083650 0.000000
CHANNELS 3 Zrotation Xrotation Yrotation
							JOINT RightWrist
							{
OFFSET 0 -3.359840 0.000000
CHANNELS 3 Zrotation Xrotation Yrotation
								JOINT rhand
								{
									OFFSET 0 0 0
CHANNELS 3 Zrotation Xrotation Yrotation
									JOINT RFingers
									{
OFFSET 0 -0.820760 0.000000
CHANNELS 3 Zrotation Xrotation Yrotation
										End Site
										{
OFFSET 0 -0.661720 0.000000
										}
									}
								}
								JOINT RThumb
								{
OFFSET 0 0.000000 0.000000
CHANNELS 3 Zrotation Xrotation Yrotation
									End Site
									{
OFFSET 0 -0.671820 0.671820
									}
								}
							}
						}
					}
				}
			}
		}
	}
}
MOTION
Frames: 5
Frame Time: .0083333
-8.6189 18.0731 5.3837 -41.0982 83.3834 -22.2811 0.0000 0.0000 0.0000 -8.8967 -6.7288 -33.4913 1.7936 8.4222 24.0041 0.0812 -6.2250 -6.2722 0.4903 -4.4897 -12.4587 0.0000 0.0000 0.0000 16.5517 11.3153 -34.5627 -2.0457 -8.9606 25.6720 -0.0832 -1.0164 -5.9198 -0.0686 -1.6896 4.6485 -2.2296 1.3900 6.3728 4.4615 1.9560 7.1314 5.8526 0.8802 3.6135 2.4206 -0.7067 -11.0926 -6.4728 3.2467 40.9529 -2.6191 1.4711 16.8632 -0.0000 -0.0000 0.0000 -3.502 -16.5027 -77.1192 42.6166 -49.5459 20.4085 29.9979 -33.5828 -63.3993 0.0 0.0 0.0 -7.1250 0.0 0.0 170.6740 6.7904 -8.271 -0.0000 -0.0000 0.0000 -2.8489 -14.9012 65.0679 -37.9864 -46.8306 -16.9557 -34.1737 -45.7382 12.8997 0.0 0.0 0.0 7.1250 0.0 -0.0 -6.4451 45.3542 0.0566
-8.6216 18.0735 5.3831 -41.1880 83.4626 -22.3858 0.0000 0.0000 0.0000 -8.9616 -6.6986 -33.5110 1.7913 8.4172 23.9885 0.0748 -6.3011 -6.1731 0.4588 -4.3449 -12.0491 0.0000 0.0000 0.0000 16.5314 11.2221 -34.5804 -2.0461 -8.9615 25.6751 -0.0848 -0.9724 -5.9466 -0.0780 -1.8019 4.9584 -2.2082 1.3725 6.3861 4.4368 1.9345 7.1554 5.8153 0.8705 3.6351 2.4465 -0.7001 -11.1200 -6.4755 3.2536 40.9715 -2.6248 1.4773 16.8815 0.0000 0.0000 0.0000 -3.3924 -16.5277 -77.222 42.8649 -49.6786 20.5977 31.5535 -32.369 -63.7233 0.0 0.0 0.0 -7.1250 0.0 0.0 170.9728 7.3944 -7.8915 0.0000 0.0000 0.0000 -2.8229 -14.9649 65.0772 -37.9361 -46.7985 -16.919 -34.2069 -45.7275 13.0021 0.0 0.0 0.0 7.1250 0.0 -0.0 -6.4756 45.4796 0.077
-8.6238 18.0731 5.3837 -41.5480 83.5109 -22.7034 0.0000 0.0000 0.0000 -8.9420 -6.7140 -33.5769 1.7924 8.4195 23.9956 0.0711 -6.3535 -6.1214 0.4378 -4.2459 -11.7696 0.0000 0.0000 0.0000 16.5290 11.2181 -34.6231 -2.0436 -8.9563 25.6588 -0.0854 -0.9818 -5.9728 -0.0784 -1.8058 4.9693 -2.1679 1.3567 6.3388 4.4357 1.9154 7.1767 5.7941 0.8616 3.6872 2.4531 -0.6903 -11.1587 -6.4946 3.2682 40.9487 -2.6319 1.4801 16.8806 0.0000 0.0000 0.0000 -3.3507 -16.5845 -77.3187 43.0165 -49.7589 20.7134 33.3212 -30.9465 -64.0759 0.0 0.0 0.0 -7.1250 0.0 0.0 171.2981 8.0812 -7.4813 0.0000 0.0000 0.0000 -2.787 -15.0754 65.0851 -37.8053 -46.7145 -16.8237 -34.259 -45.4966 13.1507 0.0 0.0 0.0 7.1250 0.0 -0.0 -6.5237 45.6624 0.1071
-8.6258 18.0713 5.3840 -42.2503 83.5061 -23.3598 0.0000 0.0000 0.0000 -8.8564 -6.7202 -33.6467 1.7946 8.4244 24.0107 0.0723 -6.4016 -6.1691 0.4531 -4.3184 -11.9742 0.0000 0.0000 0.0000 16.5895 11.2384 -34.6464 -2.0386 -8.9460 25.6265 -0.0845 -1.0183 -5.9634 -0.0799 -1.8232 5.0174 -2.0814 1.3515 6.2921 4.4583 1.9119 7.1877 5.7707 0.8625 3.7266 2.4530 -0.6771 -11.1234 -6.5313 3.2939 40.8827 -2.6416 1.4854 16.8378 0.0000 -0.0000 0.0000 -3.3895 -16.6229 -77.3342 42.9345 -49.7155 20.6508 32.3912 -31.808 -63.8114 0.0 0.0 0.0 -7.1250 0.0 0.0 171.1578 7.6469 -7.6814 0.0000 -0.0000 0.0000 -2.7949 -15.1309 65.0731 -37.7263 -46.6636 -16.7663 -34.3286 -45.2132 13.2743 0.0 0.0 0.0 7.1250 0.0 -0.0 -6.5890 45.8184 0.1337
-8.6273 18.0703 5.3836 -42.6625 83.5076 -23.7452 0.0000 0.0000 0.0000 -8.7869 -6.8007 -33.6712 1.7976 8.4312 24.0315 0.0759 -6.3626 -6.2258 0.4579 -4.3410 -12.0382 0.0000 0.0000 0.0000 16.6330 11.1972 -34.6539 -2.0307 -8.9297 25.5755 -0.0823 -1.0109 -5.8906 -0.0901 -1.9358 5.3284 -2.0232 1.3567 6.2689 4.4698 1.9211 7.1963 5.7503 0.8691 3.7487 2.4513 -0.6608 -11.0826 -6.5504 3.3208 40.8292 -2.6432 1.4939 16.8003 -0.0000 -0.0000 0.0000 -3.4785 -16.6717 -77.3106 42.8350 -49.6627 20.5749 31.9592 -32.2407 -63.5593 0.0 0.0 0.0 -7.1250 0.0 0.0 171.1347 7.3295 -7.7577 -0.0000 -0.0000 0.0000 -2.8771 -15.1334 65.0634 -37.7486 -46.678 -16.7825 -34.3335 -45.2353 13.2191 0.0 0.0 0.0 7.1250 0.0 -0.0 -6.5943 45.7541 0.1233
